# xmcd
#
# Track frame offsets: 
#        160
#        25321
#        39161
#        59920
#        77055
#        95732
#        119137
#        140740
#        157442
#        188274
#        213870
#        245471
#        272031
#        296324
#        316959
#
# Disc length: 4521 seconds
#
# Revision: 1
# Processed by: cddbd v1.5.2PL0 Copyright (c) Steve Scherf et al.
# Submitted via: ExactAudioCopy v0.99pb4
#
DISCID=e111a70f
DTITLE=ДиДюЛя - Дорога В Багдад
DYEAR=2002
DGENRE=Instrumental
TTITLE0=Arabica
TTITLE1=На Побережье
TTITLE2=Лейла
TTITLE3=Ветер
TTITLE4=День Рожденья
TTITLE5=По Течению
TTITLE6=Чаппа
TTITLE7=Гром
TTITLE8=Fashion
TTITLE9=Полёт На Меркурий
TTITLE10=Мираж
TTITLE11=Вверх
TTITLE12=Дорога В Багдад
TTITLE13=Кофе Утром
TTITLE14=Мои Печали И Радости
EXTD=
EXTT0=
EXTT1=
EXTT2=
EXTT3=
EXTT4=
EXTT5=
EXTT6=
EXTT7=
EXTT8=
EXTT9=
EXTT10=
EXTT11=
EXTT12=
EXTT13=
EXTT14=
PLAYORDER=
